<svg width="17" height="12" viewBox="0 0 17 12" fill="none" xmlns="http://www.w3.org/2000/svg">
<path d="M15.9367 0.458008H0.820736C0.641256 0.491171 0.479059 0.586145 0.362312 0.72644C0.245565 0.866736 0.181641 1.04349 0.181641 1.22601C0.181641 1.40852 0.245565 1.58528 0.362312 1.72557C0.479059 1.86587 0.641256 1.96085 0.820736 1.99401H15.9367C16.1162 1.96085 16.2784 1.86587 16.3952 1.72557C16.5119 1.58528 16.5758 1.40852 16.5758 1.22601C16.5758 1.04349 16.5119 0.866736 16.3952 0.72644C16.2784 0.586145 16.1162 0.491171 15.9367 0.458008Z" fill="#5A4BDA"/>
<path d="M15.9367 5.45801H0.820736C0.641256 5.49117 0.479059 5.58615 0.362312 5.72644C0.245565 5.86674 0.181641 6.04349 0.181641 6.22601C0.181641 6.40852 0.245565 6.58528 0.362312 6.72557C0.479059 6.86587 0.641256 6.96085 0.820736 6.99401H15.9367C16.1162 6.96085 16.2784 6.86587 16.3952 6.72557C16.5119 6.58528 16.5758 6.40852 16.5758 6.22601C16.5758 6.04349 16.5119 5.86674 16.3952 5.72644C16.2784 5.58615 16.1162 5.49117 15.9367 5.45801Z" fill="#5A4BDA"/>
<path d="M15.9367 10.458H0.820736C0.641256 10.4912 0.479059 10.5861 0.362312 10.7264C0.245565 10.8667 0.181641 11.0435 0.181641 11.226C0.181641 11.4085 0.245565 11.5853 0.362312 11.7256C0.479059 11.8659 0.641256 11.9608 0.820736 11.994H15.9367C16.1162 11.9608 16.2784 11.8659 16.3952 11.7256C16.5119 11.5853 16.5758 11.4085 16.5758 11.226C16.5758 11.0435 16.5119 10.8667 16.3952 10.7264C16.2784 10.5861 16.1162 10.4912 15.9367 10.458Z" fill="#5A4BDA"/>
</svg>
