<svg width="18" height="18" viewBox="0 0 18 18" fill="none" xmlns="http://www.w3.org/2000/svg">
<path d="M11.6023 12.4752V12.1545C11.7044 12.0832 11.7724 12.0119 11.8405 11.905C12.623 11.0495 12.9292 9.90891 13.0312 9.19604C13.4055 9.12475 14.0859 8.91089 14.4942 8.26931C15.0045 7.52079 15.0386 6.48713 14.6303 5.16832C14.5963 5.09703 14.5623 5.02574 14.4942 4.9901L14.2901 4.84752C14.2901 4.27723 14.222 2.7802 13.2014 1.60396C12.2828 0.534653 10.8878 0 9.0166 0C7.14537 0 5.75045 0.570297 4.83184 1.60396C3.81117 2.81584 3.7091 4.31287 3.74313 4.84752L3.53899 4.9901C3.47095 5.02574 3.43692 5.09703 3.4029 5.16832C2.99463 6.48713 3.02866 7.52079 3.53899 8.26931C3.98128 8.91089 4.62771 9.12475 5.00196 9.19604C5.10402 9.94455 5.3762 11.0495 6.19274 11.905C6.26079 11.9762 6.36285 12.0832 6.4309 12.1545V12.4752C5.13805 12.7248 -0.0673838 14.0079 0.000660986 17.6436C0.000660986 17.8218 0.170773 18 0.340885 18H9.0166H17.6583C17.8284 18 17.9985 17.8574 17.9985 17.6436C18.1006 14.0079 12.8952 12.7248 11.6023 12.4752ZM4.08335 7.84158C3.74313 7.30693 3.7091 6.52277 4.01531 5.48911L4.25346 5.31089C4.35553 5.2396 4.42357 5.09703 4.38955 4.9901C4.38955 4.9901 4.25346 3.27921 5.30816 2.06733C6.1247 1.14059 7.3495 0.677228 9.0166 0.677228C10.6837 0.677228 11.9085 1.14059 12.691 2.06733C13.7457 3.31485 13.6096 4.9901 13.6096 4.9901C13.6096 5.13267 13.6436 5.2396 13.7457 5.31089L13.9839 5.48911C14.2901 6.52277 14.2561 7.30693 13.9158 7.84158C13.7117 8.12673 13.4395 8.30495 13.2014 8.41188C13.6436 7.7703 13.8478 7.2 13.7457 6.6297C13.6777 6.13069 13.3715 5.8099 13.2014 5.63168C13.0653 2.06733 10.6837 1.67525 9.629 1.67525C9.3228 1.67525 9.08465 1.71089 8.98258 1.71089C8.88051 1.67525 8.64235 1.67525 8.33615 1.67525C7.31548 1.67525 4.93391 2.06733 4.7638 5.63168C4.59369 5.8099 4.28749 6.13069 4.21944 6.6297C4.11737 7.2 4.32151 7.7703 4.7638 8.41188C4.55966 8.30495 4.28749 8.12673 4.08335 7.84158ZM12.5209 5.45347C10.1734 5.59604 8.47224 4.38416 8.47224 4.38416C8.33615 4.27723 8.13202 4.31287 8.02995 4.4198C7.3495 5.20396 6.1247 5.38218 5.51229 5.41782C5.6824 2.88713 7.14537 2.35248 8.37018 2.35248C8.7104 2.35248 8.94856 2.38812 8.94856 2.38812C8.98258 2.38812 9.05062 2.38812 9.08465 2.38812C9.08465 2.38812 9.3228 2.35248 9.66303 2.35248C10.8878 2.35248 12.3508 2.92277 12.5209 5.45347ZM5.64838 8.44753C5.64838 8.37624 5.61436 8.26931 5.58034 8.19802C5.10402 7.62772 4.89989 7.12871 4.96793 6.70099C5.00196 6.3802 5.20609 6.20198 5.27414 6.13069C5.71643 6.13069 7.31548 6.05941 8.33615 5.13267C8.88051 5.45347 10.2754 6.20198 12.1126 6.20198C12.3508 6.20198 12.589 6.20198 12.8271 6.16634C12.9292 6.27327 13.0993 6.45149 13.1333 6.73663C13.2014 7.16436 12.9632 7.66337 12.5209 8.23366C12.4529 8.30495 12.4188 8.37624 12.4529 8.48317C12.4529 8.48317 12.4529 8.55446 12.4529 8.66139L10.4796 9.76634C10.3095 9.58812 10.0713 9.48119 9.79912 9.48119C9.25476 9.48119 8.81247 9.94456 8.81247 10.5149C8.81247 11.0851 9.25476 11.5485 9.79912 11.5485C10.3435 11.5485 10.7858 11.0851 10.7858 10.5149C10.7858 10.4792 10.7858 10.4436 10.7858 10.4079L12.3508 9.51683C12.2147 10.1228 11.9766 10.8356 11.4322 11.4059C10.8878 11.9762 10.1053 12.297 9.18671 12.297H9.08465H9.0166C8.06397 12.297 7.31548 12.0119 6.77112 11.4059C5.61436 10.301 5.64838 8.48317 5.64838 8.44753ZM10.0373 10.5149C10.0373 10.6931 9.90118 10.8356 9.73107 10.8356C9.56096 10.8356 9.42487 10.6931 9.42487 10.5149C9.42487 10.3366 9.56096 10.1941 9.73107 10.1941C9.90118 10.1941 10.0373 10.3366 10.0373 10.5149ZM8.67638 17.2871H0.715132C0.987311 14.6139 5.13805 13.4733 6.4309 13.1881V13.8297C6.4309 14.6495 7.38353 15.2554 8.67638 15.3624V17.2871ZM7.11135 13.8297V12.6178C7.62168 12.8673 8.23409 13.0099 8.91453 13.0099H8.98258H9.08465C9.76509 13.0099 10.3775 12.8673 10.8878 12.6178V13.8297C10.8878 14.1505 10.1393 14.6495 8.98258 14.6495C7.82582 14.6495 7.11135 14.1505 7.11135 13.8297ZM9.35682 17.2871V15.3624C10.6497 15.2554 11.6023 14.6495 11.6023 13.8297V13.1881C12.8952 13.4733 17.0459 14.5782 17.3181 17.2871H9.35682Z" fill="#05002D"/>
</svg>
